<svg width="33" height="33" viewBox="0 0 33 33" fill="none" xmlns="http://www.w3.org/2000/svg">
<path d="M15.0615 12.0483V20.1854C13.9645 18.2207 11.9659 15.2754 9.27609 14.2348C9.27609 14.2348 5.99269 13.6487 0.32 15.6285C0.32 15.6285 4.73042 17.7886 6.17302 22.6499C6.17302 22.6499 10.7638 23.3073 14.4078 22.849C12.6773 20.7162 10.4185 19.0739 7.85604 18.0854C7.76675 18.1853 7.65729 18.265 7.53489 18.3194C7.4125 18.3738 7.27995 18.4016 7.14602 18.401C6.95802 18.4016 6.774 18.3469 6.61689 18.2436C6.45978 18.1404 6.33653 17.9932 6.26247 17.8204C6.18842 17.6476 6.16685 17.4568 6.20044 17.2718C6.23404 17.0869 6.32132 16.9159 6.45141 16.7801C6.58149 16.6444 6.74864 16.55 6.93202 16.5086C7.1154 16.4672 7.30691 16.4806 7.48269 16.5473C7.65847 16.614 7.81076 16.7309 7.92056 16.8835C8.03037 17.0361 8.09286 17.2176 8.10023 17.4055C10.8174 18.4384 13.2054 20.1853 15.0127 22.462C15.03 22.4811 15.0464 22.5012 15.0615 22.5221V25.2796C15.0615 26.1676 15.0615 26.4851 15.0615 27.8C15.0615 28.7391 15.0615 28.9257 15.0615 29.8662C15.0615 30.4297 15.0615 30.2418 15.0615 30.9932C15.0615 31.5567 15.0615 31.7445 15.0615 32.0418H16.9173C16.9173 30.9932 16.9173 31.3689 16.9173 29.4905C16.9173 27.8674 16.9614 27.2126 16.9173 25.4487V12.0709C16.9173 4.83161 25.8321 2.02156 25.8321 2.02156C18.4163 5.39888 18.1458 10.895 18.1458 10.895C21.2301 11.9769 25.0319 11.0302 26.2491 6.4395C27.4663 1.84875 32.32 0.699185 32.32 0.699185C32.32 0.699185 15.0615 -4.22216 15.0615 12.0483Z" fill="#00DFA2"/>
</svg>
