<svg width="86" height="86" viewBox="0 0 86 86" fill="none" xmlns="http://www.w3.org/2000/svg">
<path d="M39.24 32.0711V53.7311C36.32 48.5011 31 40.6611 23.84 37.8911C23.84 37.8911 15.1 36.3311 0 41.6011C0 41.6011 11.74 47.3511 15.58 60.2911C15.58 60.2911 27.8 62.0411 37.5 60.8211C32.8937 55.1441 26.8809 50.7724 20.06 48.1411C19.8223 48.4069 19.5309 48.6192 19.2051 48.764C18.8793 48.9088 18.5265 48.9828 18.17 48.9811C17.6696 48.9827 17.1798 48.837 16.7615 48.5622C16.3433 48.2874 16.0152 47.8956 15.8181 47.4356C15.621 46.9756 15.5636 46.4678 15.653 45.9755C15.7424 45.4831 15.9748 45.0279 16.321 44.6666C16.6673 44.3054 17.1122 44.054 17.6004 43.9438C18.0885 43.8336 18.5983 43.8694 19.0662 44.0469C19.5341 44.2243 19.9395 44.5355 20.2318 44.9417C20.5241 45.3479 20.6904 45.8311 20.71 46.3311C27.9426 49.0806 34.2994 53.7307 39.11 59.7911C39.1563 59.842 39.1997 59.8954 39.24 59.9511V67.2911C39.24 69.6549 38.7744 71.9956 37.8698 74.1794C36.9652 76.3633 35.6394 78.3476 33.9679 80.0191C32.2965 81.6905 30.3122 83.0164 28.1283 83.921C25.9444 84.8256 23.6038 85.2911 21.24 85.2911H62.18C57.4831 85.2926 52.9716 83.4581 49.6086 80.1791C46.2456 76.9002 44.2974 72.4366 44.18 67.7411V32.1311C44.18 12.8611 67.91 5.38114 67.91 5.38114C48.17 14.3711 47.45 29.0011 47.45 29.0011C55.66 31.8811 65.78 29.3611 69.02 17.1411C72.26 4.92114 85.18 1.86114 85.18 1.86114C85.18 1.86114 39.24 -11.2389 39.24 32.0711Z" fill="#00DFA2"/>
</svg>
