<svg width="86" height="120" viewBox="0 0 86 120" fill="none" xmlns="http://www.w3.org/2000/svg">
<path fill-rule="evenodd" clip-rule="evenodd" d="M86 0H0V76.6V120H24.4581C25.7134 119.772 26.9439 119.41 28.1283 118.92C30.3122 118.015 32.2965 116.689 33.9679 115.018C35.6394 113.346 36.9652 111.362 37.8698 109.178C38.7744 106.994 39.24 104.654 39.24 102.29V94.95C39.1997 94.8943 39.1563 94.8408 39.11 94.79C34.2994 88.7296 27.9426 84.0795 20.71 81.33C20.6904 80.83 20.524 80.3467 20.2318 79.9406C19.9395 79.5344 19.5341 79.2232 19.0662 79.0457C18.5983 78.8683 18.0885 78.8324 17.6004 78.9426C17.1122 79.0528 16.6673 79.3042 16.321 79.6655C15.9748 80.0268 15.7424 80.4819 15.653 80.9743C15.5636 81.4667 15.621 81.9745 15.8181 82.4345C16.0152 82.8944 16.3433 83.2862 16.7615 83.5611C17.1798 83.8359 17.6696 83.9816 18.17 83.98C18.5265 83.9817 18.8793 83.9076 19.2051 83.7628C19.5309 83.618 19.8223 83.4057 20.06 83.14C26.8809 85.7712 32.8937 90.1429 37.5 95.82C27.8 97.04 15.58 95.29 15.58 95.29C11.74 82.35 0 76.6 0 76.6C15.1 71.33 23.84 72.89 23.84 72.89C31 75.66 36.32 83.5 39.24 88.73V67.07C39.24 23.76 85.18 36.86 85.18 36.86C85.18 36.86 72.26 39.92 69.02 52.14C65.78 64.36 55.66 66.88 47.45 64C47.45 64 48.17 49.37 67.91 40.38C67.91 40.38 44.18 47.86 44.18 67.13V102.74C44.2974 107.435 46.2456 111.899 49.6086 115.178C52.1921 117.697 55.4534 119.363 58.9559 120H86V0Z" fill="#F6FA70"/>
</svg>
